<svg xmlns="http://www.w3.org/2000/svg" width="345.642" height="54.78" viewBox="0 0 345.642 54.78">
    <g data-name="Group 8241">
        <path data-name="Path 3737" d="M4.228-9.73a5.926 5.926 0 0 1 2.723.6 4.257 4.257 0 0 1 1.806 1.703 5.137 5.137 0 0 1 .637 2.6 5.022 5.022 0 0 1-.637 2.576 4.207 4.207 0 0 1-1.806 1.67A6.045 6.045 0 0 1 4.228 0H1.05v-9.73zm0 8.428a3.512 3.512 0 0 0 2.618-.924 3.553 3.553 0 0 0 .91-2.6 3.673 3.673 0 0 0-.91-2.646 3.452 3.452 0 0 0-2.618-.952H2.646V-1.3zm13.818-2.744a4.99 4.99 0 0 1-.056.784H12.1a2.141 2.141 0 0 0 .686 1.484 2.165 2.165 0 0 0 1.512.56A1.867 1.867 0 0 0 16.114-2.3h1.722a3.475 3.475 0 0 1-1.267 1.747 3.717 3.717 0 0 1-2.275.679 3.94 3.94 0 0 1-1.981-.5 3.536 3.536 0 0 1-1.372-1.4 4.271 4.271 0 0 1-.5-2.093 4.371 4.371 0 0 1 .483-2.093 3.4 3.4 0 0 1 1.361-1.39 4.042 4.042 0 0 1 2.009-.49 3.929 3.929 0 0 1 1.946.476 3.363 3.363 0 0 1 1.33 1.337 4.027 4.027 0 0 1 .476 1.981zm-1.666-.5a1.816 1.816 0 0 0-.63-1.414 2.252 2.252 0 0 0-1.526-.54 2.05 2.05 0 0 0-1.414.525 2.194 2.194 0 0 0-.7 1.421zM22.414.126A3.886 3.886 0 0 1 20.783-.2a2.865 2.865 0 0 1-1.141-.9 2.233 2.233 0 0 1-.448-1.267h1.652a1.127 1.127 0 0 0 .469.819 1.7 1.7 0 0 0 1.071.329 1.8 1.8 0 0 0 1.043-.259.782.782 0 0 0 .371-.665.683.683 0 0 0-.413-.644 7.741 7.741 0 0 0-1.309-.462 12.634 12.634 0 0 1-1.414-.462 2.479 2.479 0 0 1-.945-.686 1.8 1.8 0 0 1-.4-1.218 1.9 1.9 0 0 1 .364-1.127 2.424 2.424 0 0 1 1.043-.8 3.9 3.9 0 0 1 1.561-.294 3.223 3.223 0 0 1 2.121.665 2.388 2.388 0 0 1 .861 1.813h-1.6a1.137 1.137 0 0 0-.42-.826 1.571 1.571 0 0 0-1.017-.316 1.659 1.659 0 0 0-.966.238.737.737 0 0 0-.336.63.682.682 0 0 0 .224.518 1.6 1.6 0 0 0 .546.329q.322.119.952.3a10.356 10.356 0 0 1 1.379.455 2.567 2.567 0 0 1 .931.679 1.8 1.8 0 0 1 .406 1.19A2 2 0 0 1 25-.98a2.413 2.413 0 0 1-1.029.812 3.834 3.834 0 0 1-1.557.294zM27.9-8.736a.989.989 0 0 1-.728-.294.989.989 0 0 1-.294-.728.989.989 0 0 1 .294-.728.989.989 0 0 1 .728-.294.972.972 0 0 1 .714.294.989.989 0 0 1 .294.728.989.989 0 0 1-.294.728.972.972 0 0 1-.714.294zm.784 1.022V0h-1.6v-7.714zm5.208-.126a3.421 3.421 0 0 1 1.589.357 3.052 3.052 0 0 1 1.085.889v-1.12h1.61v7.84a3.941 3.941 0 0 1-.448 1.9 3.237 3.237 0 0 1-1.295 1.309 4.066 4.066 0 0 1-2.023.476 4.39 4.39 0 0 1-2.6-.735 2.712 2.712 0 0 1-1.176-2h1.582a1.717 1.717 0 0 0 .777.973 2.632 2.632 0 0 0 1.421.371 2.125 2.125 0 0 0 1.561-.588 2.3 2.3 0 0 0 .6-1.708v-1.286a3.254 3.254 0 0 1-1.1.917A3.284 3.284 0 0 1 33.9.126a3.452 3.452 0 0 1-1.841-.511 3.607 3.607 0 0 1-1.316-1.428 4.393 4.393 0 0 1-.483-2.079 4.269 4.269 0 0 1 .483-2.058 3.54 3.54 0 0 1 1.316-1.393 3.526 3.526 0 0 1 1.835-.497zm2.674 3.976a2.793 2.793 0 0 0-.329-1.386 2.309 2.309 0 0 0-.861-.9 2.253 2.253 0 0 0-1.148-.308 2.293 2.293 0 0 0-1.148.3 2.27 2.27 0 0 0-.861.882 2.754 2.754 0 0 0-.329 1.379 2.874 2.874 0 0 0 .329 1.4 2.321 2.321 0 0 0 .868.917 2.226 2.226 0 0 0 1.141.315 2.253 2.253 0 0 0 1.148-.308 2.3 2.3 0 0 0 .861-.9 2.833 2.833 0 0 0 .331-1.391zm7.6-3.976a3.459 3.459 0 0 1 1.631.378 2.688 2.688 0 0 1 1.127 1.12 3.684 3.684 0 0 1 .406 1.792V0h-1.578v-4.312a2.239 2.239 0 0 0-.518-1.588 1.844 1.844 0 0 0-1.414-.553 1.866 1.866 0 0 0-1.42.553 2.22 2.22 0 0 0-.525 1.589V0h-1.6v-7.714h1.6v.882a2.642 2.642 0 0 1 1-.742 3.2 3.2 0 0 1 1.295-.266zm12.268 3.794a4.99 4.99 0 0 1-.056.784h-5.894a2.141 2.141 0 0 0 .686 1.484 2.165 2.165 0 0 0 1.512.56A1.867 1.867 0 0 0 54.5-2.3h1.722a3.475 3.475 0 0 1-1.265 1.747 3.717 3.717 0 0 1-2.275.679 3.94 3.94 0 0 1-1.981-.5 3.536 3.536 0 0 1-1.372-1.4 4.271 4.271 0 0 1-.5-2.093 4.371 4.371 0 0 1 .483-2.093 3.4 3.4 0 0 1 1.361-1.39 4.041 4.041 0 0 1 2.009-.49 3.929 3.929 0 0 1 1.946.476 3.363 3.363 0 0 1 1.33 1.337 4.027 4.027 0 0 1 .476 1.981zm-1.666-.5a1.816 1.816 0 0 0-.63-1.414 2.252 2.252 0 0 0-1.526-.54 2.05 2.05 0 0 0-1.414.525 2.194 2.194 0 0 0-.7 1.421zm2.7.658a4.269 4.269 0 0 1 .483-2.058 3.54 3.54 0 0 1 1.316-1.393 3.551 3.551 0 0 1 1.855-.5 3.618 3.618 0 0 1 1.491.329 3.051 3.051 0 0 1 1.169.875v-3.725h1.61V0h-1.61v-1.162a2.988 2.988 0 0 1-1.082.924 3.367 3.367 0 0 1-1.59.364 3.452 3.452 0 0 1-1.841-.511 3.607 3.607 0 0 1-1.316-1.428 4.393 4.393 0 0 1-.483-2.079zm6.314.028a2.793 2.793 0 0 0-.329-1.386 2.309 2.309 0 0 0-.861-.9 2.253 2.253 0 0 0-1.148-.308 2.293 2.293 0 0 0-1.148.3 2.27 2.27 0 0 0-.861.882 2.754 2.754 0 0 0-.329 1.379 2.874 2.874 0 0 0 .329 1.4 2.321 2.321 0 0 0 .868.917 2.226 2.226 0 0 0 1.141.315 2.253 2.253 0 0 0 1.148-.308 2.3 2.3 0 0 0 .861-.9 2.833 2.833 0 0 0 .331-1.395zM78.652 0l-1.2-1.2a4.712 4.712 0 0 1-1.53 1.039 4.777 4.777 0 0 1-1.848.343 4.376 4.376 0 0 1-1.834-.364 2.8 2.8 0 0 1-1.232-1.043 2.861 2.861 0 0 1-.434-1.575 2.986 2.986 0 0 1 .574-1.8 3.822 3.822 0 0 1 1.708-1.253 3.474 3.474 0 0 1-.574-.917 2.56 2.56 0 0 1-.168-.945 2.053 2.053 0 0 1 .329-1.148 2.254 2.254 0 0 1 .945-.8 3.28 3.28 0 0 1 1.428-.294 2.915 2.915 0 0 1 1.407.315 2.06 2.06 0 0 1 .868.861 2.176 2.176 0 0 1 .231 1.218h-1.6a1.094 1.094 0 0 0-.252-.805.944.944 0 0 0-.728-.287 1.042 1.042 0 0 0-.742.276.883.883 0 0 0-.287.665 1.47 1.47 0 0 0 .217.749 6.009 6.009 0 0 0 .763.959l2.576 2.562.994-1.638h1.722l-1.26 2.156-.35.574L80.738 0zm-4.578-1.176A3.1 3.1 0 0 0 76.4-2.254l-2.576-2.59q-1.652.658-1.652 1.988a1.552 1.552 0 0 0 .532 1.2 1.962 1.962 0 0 0 1.37.48zM88.606-9.73a5.926 5.926 0 0 1 2.723.6 4.257 4.257 0 0 1 1.806 1.708 5.137 5.137 0 0 1 .637 2.6 5.022 5.022 0 0 1-.637 2.576 4.207 4.207 0 0 1-1.806 1.665A6.045 6.045 0 0 1 88.606 0h-3.178v-9.73zm0 8.428a3.512 3.512 0 0 0 2.618-.924 3.553 3.553 0 0 0 .91-2.6 3.673 3.673 0 0 0-.91-2.646 3.452 3.452 0 0 0-2.618-.952h-1.582V-1.3zm13.818-2.744a4.989 4.989 0 0 1-.056.784h-5.894a2.141 2.141 0 0 0 .686 1.484 2.165 2.165 0 0 0 1.512.56 1.868 1.868 0 0 0 1.82-1.078h1.722a3.475 3.475 0 0 1-1.267 1.743 3.717 3.717 0 0 1-2.275.679 3.94 3.94 0 0 1-1.981-.5 3.536 3.536 0 0 1-1.372-1.4 4.271 4.271 0 0 1-.5-2.093 4.371 4.371 0 0 1 .483-2.093 3.4 3.4 0 0 1 1.361-1.39 4.041 4.041 0 0 1 2.009-.49 3.929 3.929 0 0 1 1.946.476 3.363 3.363 0 0 1 1.33 1.337 4.027 4.027 0 0 1 .476 1.981zm-1.666-.5a1.816 1.816 0 0 0-.63-1.414A2.252 2.252 0 0 0 98.6-6.5a2.05 2.05 0 0 0-1.414.525 2.194 2.194 0 0 0-.7 1.421zm6.216 3.122 2.184-6.286h1.694L107.912 0h-1.9l-2.926-7.714h1.708zm12.152-2.618a4.989 4.989 0 0 1-.056.784h-5.894a2.141 2.141 0 0 0 .686 1.484 2.165 2.165 0 0 0 1.512.56 1.868 1.868 0 0 0 1.82-1.078h1.722a3.475 3.475 0 0 1-1.267 1.743 3.717 3.717 0 0 1-2.275.679 3.94 3.94 0 0 1-1.981-.5 3.536 3.536 0 0 1-1.372-1.4 4.271 4.271 0 0 1-.5-2.093 4.371 4.371 0 0 1 .483-2.093 3.4 3.4 0 0 1 1.358-1.393 4.041 4.041 0 0 1 2.009-.49 3.929 3.929 0 0 1 1.946.476 3.363 3.363 0 0 1 1.33 1.337 4.027 4.027 0 0 1 .479 1.98zm-1.666-.5a1.816 1.816 0 0 0-.63-1.414 2.252 2.252 0 0 0-1.53-.544 2.05 2.05 0 0 0-1.414.525 2.194 2.194 0 0 0-.7 1.421zm4.83-5.81V0h-1.6v-10.36zM127.736.126a3.951 3.951 0 0 1-1.974-.5 3.57 3.57 0 0 1-1.386-1.4 4.223 4.223 0 0 1-.5-2.093 4.142 4.142 0 0 1 .518-2.086 3.578 3.578 0 0 1 1.414-1.4 4.1 4.1 0 0 1 2-.49 4.1 4.1 0 0 1 2 .49 3.578 3.578 0 0 1 1.414 1.4 4.142 4.142 0 0 1 .518 2.086 4.056 4.056 0 0 1-.532 2.086 3.684 3.684 0 0 1-1.449 1.407 4.176 4.176 0 0 1-2.023.5zm0-1.386a2.375 2.375 0 0 0 1.155-.294 2.24 2.24 0 0 0 .875-.882 2.836 2.836 0 0 0 .336-1.428 2.9 2.9 0 0 0-.322-1.421 2.174 2.174 0 0 0-.854-.875 2.335 2.335 0 0 0-1.148-.294 2.3 2.3 0 0 0-1.141.294 2.1 2.1 0 0 0-.833.875 3 3 0 0 0-.308 1.421 2.707 2.707 0 0 0 .637 1.925 2.1 2.1 0 0 0 1.603.679zm7.182-5.32a3.244 3.244 0 0 1 1.106-.9 3.378 3.378 0 0 1 1.582-.364 3.526 3.526 0 0 1 1.841.5 3.491 3.491 0 0 1 1.309 1.393 4.32 4.32 0 0 1 .476 2.058 4.446 4.446 0 0 1-.476 2.079 3.557 3.557 0 0 1-1.309 1.428 3.452 3.452 0 0 1-1.841.511 3.347 3.347 0 0 1-1.568-.357 3.514 3.514 0 0 1-1.12-.889v4.789h-1.6V-7.714h1.6zm4.69 2.688a2.754 2.754 0 0 0-.329-1.379 2.255 2.255 0 0 0-.868-.882 2.332 2.332 0 0 0-1.155-.3 2.265 2.265 0 0 0-1.141.308 2.293 2.293 0 0 0-.868.9 2.793 2.793 0 0 0-.329 1.386 2.833 2.833 0 0 0 .329 1.393 2.282 2.282 0 0 0 .868.9 2.265 2.265 0 0 0 1.141.308 2.251 2.251 0 0 0 1.155-.315 2.321 2.321 0 0 0 .868-.917 2.874 2.874 0 0 0 .329-1.402zm10.276-.154a4.989 4.989 0 0 1-.056.784h-5.894a2.141 2.141 0 0 0 .686 1.484 2.165 2.165 0 0 0 1.512.56 1.867 1.867 0 0 0 1.82-1.078h1.722a3.475 3.475 0 0 1-1.267 1.743 3.717 3.717 0 0 1-2.275.679 3.94 3.94 0 0 1-1.981-.5 3.536 3.536 0 0 1-1.372-1.4 4.271 4.271 0 0 1-.5-2.093 4.371 4.371 0 0 1 .483-2.093 3.4 3.4 0 0 1 1.358-1.393 4.042 4.042 0 0 1 2.009-.49 3.929 3.929 0 0 1 1.946.476 3.363 3.363 0 0 1 1.33 1.337 4.027 4.027 0 0 1 .479 1.984zm-1.666-.5a1.816 1.816 0 0 0-.63-1.414 2.252 2.252 0 0 0-1.526-.532 2.05 2.05 0 0 0-1.414.525 2.194 2.194 0 0 0-.7 1.421zm2.7.658a4.269 4.269 0 0 1 .482-2.062 3.54 3.54 0 0 1 1.316-1.393 3.551 3.551 0 0 1 1.855-.5 3.618 3.618 0 0 1 1.491.329 3.051 3.051 0 0 1 1.169.875v-3.721h1.61V0h-1.61v-1.162a2.988 2.988 0 0 1-1.085.924 3.366 3.366 0 0 1-1.589.364 3.452 3.452 0 0 1-1.841-.511 3.606 3.606 0 0 1-1.316-1.428 4.393 4.393 0 0 1-.48-2.079zm6.314.028a2.793 2.793 0 0 0-.332-1.39 2.31 2.31 0 0 0-.861-.9 2.253 2.253 0 0 0-1.148-.308 2.293 2.293 0 0 0-1.148.3 2.27 2.27 0 0 0-.861.882 2.754 2.754 0 0 0-.329 1.379 2.874 2.874 0 0 0 .329 1.4 2.321 2.321 0 0 0 .868.917 2.226 2.226 0 0 0 1.141.315 2.253 2.253 0 0 0 1.148-.308 2.3 2.3 0 0 0 .861-.9 2.833 2.833 0 0 0 .334-1.391zm8.946-2.7a3.027 3.027 0 0 1 1.113-.917 3.444 3.444 0 0 1 1.575-.357 3.553 3.553 0 0 1 1.848.49 3.447 3.447 0 0 1 1.3 1.393 4.362 4.362 0 0 1 .476 2.065 4.446 4.446 0 0 1-.476 2.079 3.557 3.557 0 0 1-1.309 1.428 3.452 3.452 0 0 1-1.841.511 3.477 3.477 0 0 1-1.589-.35 3.055 3.055 0 0 1-1.1-.9V0h-1.6v-10.36h1.6zm4.69 2.674a2.754 2.754 0 0 0-.329-1.379 2.255 2.255 0 0 0-.868-.882 2.332 2.332 0 0 0-1.155-.3 2.265 2.265 0 0 0-1.141.308 2.293 2.293 0 0 0-.868.9 2.793 2.793 0 0 0-.329 1.386 2.833 2.833 0 0 0 .329 1.393 2.282 2.282 0 0 0 .868.9 2.265 2.265 0 0 0 1.141.308 2.251 2.251 0 0 0 1.155-.315 2.321 2.321 0 0 0 .868-.917 2.874 2.874 0 0 0 .331-1.408zm10.15-3.822-4.732 11.34h-1.652L176.2-.126l-3.038-7.588h1.778l2.17 5.88 2.254-5.88zM11.3 10.27V20H9.7v-6.664L6.734 20H5.628l-2.982-6.664V20H1.05v-9.73h1.722l3.416 7.63 3.4-7.63zm2.912.994a1.022 1.022 0 1 1 0-2.044.972.972 0 0 1 .714.294 1.048 1.048 0 0 1 0 1.456.972.972 0 0 1-.716.294zm.784 1.022V20H13.4v-7.714zm3.512 6.414h3.5V20H16.66v-1.3l3.514-5.11H16.66v-1.3h5.348v1.3zm8.526 1.428a3.951 3.951 0 0 1-1.974-.5 3.57 3.57 0 0 1-1.386-1.4 4.223 4.223 0 0 1-.5-2.093 4.142 4.142 0 0 1 .518-2.086 3.578 3.578 0 0 1 1.414-1.4 4.335 4.335 0 0 1 4 0 3.578 3.578 0 0 1 1.414 1.4 4.142 4.142 0 0 1 .518 2.086 4.056 4.056 0 0 1-.532 2.086 3.684 3.684 0 0 1-1.449 1.407 4.176 4.176 0 0 1-2.023.498zm0-1.386a2.375 2.375 0 0 0 1.155-.294 2.24 2.24 0 0 0 .875-.882 2.836 2.836 0 0 0 .336-1.428 2.9 2.9 0 0 0-.322-1.421 2.174 2.174 0 0 0-.854-.875 2.335 2.335 0 0 0-1.148-.294 2.3 2.3 0 0 0-1.141.294 2.1 2.1 0 0 0-.833.875 3 3 0 0 0-.308 1.421 2.707 2.707 0 0 0 .637 1.925 2.1 2.1 0 0 0 1.603.677zm7.182-5.334a2.506 2.506 0 0 1 .931-.917 2.754 2.754 0 0 1 1.379-.329v1.652h-.406a1.944 1.944 0 0 0-1.421.476 2.276 2.276 0 0 0-.483 1.652V20h-1.6v-7.714h1.6zm3.248 2.7a4.269 4.269 0 0 1 .483-2.058 3.519 3.519 0 0 1 3.153-1.89 3.367 3.367 0 0 1 1.589.357 3.225 3.225 0 0 1 1.085.889v-1.12h1.61V20h-1.61v-1.148a3.17 3.17 0 0 1-1.106.91 3.579 3.579 0 0 1-3.416-.147 3.624 3.624 0 0 1-1.309-1.428 4.393 4.393 0 0 1-.479-2.079zm6.314.028a2.793 2.793 0 0 0-.329-1.386 2.309 2.309 0 0 0-.861-.9 2.253 2.253 0 0 0-1.148-.308 2.293 2.293 0 0 0-1.148.3 2.27 2.27 0 0 0-.861.882 2.754 2.754 0 0 0-.329 1.379 2.874 2.874 0 0 0 .329 1.4 2.321 2.321 0 0 0 .868.917 2.226 2.226 0 0 0 1.141.315 2.253 2.253 0 0 0 1.148-.308 2.3 2.3 0 0 0 .861-.9 2.833 2.833 0 0 0 .329-1.391zm13.048-3.976a3.459 3.459 0 0 1 1.631.378 2.731 2.731 0 0 1 1.134 1.12A3.633 3.633 0 0 1 60 15.45V20h-1.578v-4.312A2.239 2.239 0 0 0 57.9 14.1a1.844 1.844 0 0 0-1.414-.553 1.866 1.866 0 0 0-1.421.553 2.22 2.22 0 0 0-.525 1.589V20h-1.578v-4.312a2.239 2.239 0 0 0-.518-1.589 1.844 1.844 0 0 0-1.414-.553 1.866 1.866 0 0 0-1.421.553 2.22 2.22 0 0 0-.525 1.589V20h-1.6v-7.714h1.6v.882a2.654 2.654 0 0 1 .994-.742 3.151 3.151 0 0 1 1.288-.266 3.429 3.429 0 0 1 1.652.392 2.679 2.679 0 0 1 1.12 1.134 2.587 2.587 0 0 1 1.092-1.113 3.229 3.229 0 0 1 1.596-.413zM68.88 20.1a4.358 4.358 0 0 1-1.764-.343 2.9 2.9 0 0 1-1.232-.973 2.471 2.471 0 0 1-.448-1.47h1.708a1.542 1.542 0 0 0 .5 1.036 1.762 1.762 0 0 0 1.239.406 1.908 1.908 0 0 0 1.288-.4 1.3 1.3 0 0 0 .462-1.029 1.124 1.124 0 0 0-.287-.8 1.92 1.92 0 0 0-.714-.476 10.766 10.766 0 0 0-1.183-.364 11.084 11.084 0 0 1-1.547-.511 2.556 2.556 0 0 1-1.015-.805 2.326 2.326 0 0 1-.42-1.456 2.588 2.588 0 0 1 .42-1.47 2.683 2.683 0 0 1 1.176-.966 4.273 4.273 0 0 1 1.75-.336 3.647 3.647 0 0 1 2.317.707 2.608 2.608 0 0 1 1 1.939h-1.766a1.278 1.278 0 0 0-.5-.91 1.863 1.863 0 0 0-1.218-.378 1.728 1.728 0 0 0-1.12.35 1.22 1.22 0 0 0-.434 1.008 1.023 1.023 0 0 0 .273.735 1.928 1.928 0 0 0 .693.455 10.758 10.758 0 0 0 1.148.364 11.985 11.985 0 0 1 1.575.532 2.622 2.622 0 0 1 1.036.819 2.354 2.354 0 0 1 .427 1.477 2.656 2.656 0 0 1-.4 1.4 2.878 2.878 0 0 1-1.165 1.059 3.832 3.832 0 0 1-1.799.4zm7.112-6.51v4.27a.82.82 0 0 0 .2.623 1.009 1.009 0 0 0 .693.189h.98V20h-1.26a2.429 2.429 0 0 1-1.652-.5 2.077 2.077 0 0 1-.574-1.638v-4.27h-.91v-1.3h.91v-1.924h1.61v1.918h1.876v1.3zm2.814 2.52a4.269 4.269 0 0 1 .483-2.058 3.519 3.519 0 0 1 3.157-1.89 3.367 3.367 0 0 1 1.589.357 3.225 3.225 0 0 1 1.085.889v-1.12h1.61V20h-1.61v-1.148a3.17 3.17 0 0 1-1.106.91 3.579 3.579 0 0 1-3.416-.147 3.624 3.624 0 0 1-1.309-1.428 4.393 4.393 0 0 1-.483-2.079zm6.314.028a2.793 2.793 0 0 0-.329-1.386 2.309 2.309 0 0 0-.861-.9 2.253 2.253 0 0 0-1.148-.308 2.293 2.293 0 0 0-1.148.3 2.27 2.27 0 0 0-.861.882 2.754 2.754 0 0 0-.329 1.379 2.873 2.873 0 0 0 .329 1.4 2.321 2.321 0 0 0 .868.917 2.226 2.226 0 0 0 1.141.315 2.253 2.253 0 0 0 1.148-.308 2.3 2.3 0 0 0 .861-.9 2.833 2.833 0 0 0 .329-1.393zm5.572-2.548v4.27a.82.82 0 0 0 .2.623 1.009 1.009 0 0 0 .693.189h.98V20h-1.26a2.429 2.429 0 0 1-1.652-.5 2.077 2.077 0 0 1-.574-1.638v-4.27h-.91v-1.3h.91v-1.924h1.61v1.918h1.876v1.3zm10.416 2.366a4.99 4.99 0 0 1-.056.784h-5.894a2.141 2.141 0 0 0 .686 1.484 2.165 2.165 0 0 0 1.512.56 1.867 1.867 0 0 0 1.82-1.078h1.724a3.475 3.475 0 0 1-1.267 1.743 3.717 3.717 0 0 1-2.275.679 3.94 3.94 0 0 1-1.981-.5A3.536 3.536 0 0 1 94 18.229a4.271 4.271 0 0 1-.5-2.093 4.371 4.371 0 0 1 .483-2.093 3.4 3.4 0 0 1 1.358-1.393 4.042 4.042 0 0 1 2.009-.49 3.929 3.929 0 0 1 1.946.476 3.363 3.363 0 0 1 1.33 1.337 4.027 4.027 0 0 1 .482 1.981zm-1.666-.5a1.816 1.816 0 0 0-.63-1.414 2.252 2.252 0 0 0-1.526-.532 2.05 2.05 0 0 0-1.414.525 2.194 2.194 0 0 0-.7 1.421zm13.944.5a4.99 4.99 0 0 1-.056.784h-5.894a2.141 2.141 0 0 0 .686 1.484 2.165 2.165 0 0 0 1.512.56 1.867 1.867 0 0 0 1.82-1.078h1.722a3.475 3.475 0 0 1-1.267 1.743 3.717 3.717 0 0 1-2.275.679 3.94 3.94 0 0 1-1.981-.5 3.536 3.536 0 0 1-1.372-1.4 4.271 4.271 0 0 1-.5-2.093 4.371 4.371 0 0 1 .483-2.093 3.4 3.4 0 0 1 1.358-1.393 4.042 4.042 0 0 1 2.009-.49 3.929 3.929 0 0 1 1.946.476 3.363 3.363 0 0 1 1.33 1.337 4.027 4.027 0 0 1 .479 1.982zm-1.666-.5a1.816 1.816 0 0 0-.63-1.414 2.252 2.252 0 0 0-1.526-.532 2.05 2.05 0 0 0-1.414.525 2.194 2.194 0 0 0-.7 1.421zm9.156-1.19V15.6h-5.754v-1.34zm9.31-1.19a2.572 2.572 0 0 0-1.05-1.1 3.163 3.163 0 0 0-1.554-.371 3.4 3.4 0 0 0-1.722.434 3.041 3.041 0 0 0-1.183 1.232 3.858 3.858 0 0 0-.427 1.848 3.9 3.9 0 0 0 .427 1.855 3.031 3.031 0 0 0 1.183 1.239 3.4 3.4 0 0 0 1.722.434 3.047 3.047 0 0 0 2.114-.728 3.164 3.164 0 0 0 .994-1.974h-3.654v-1.279h5.364v1.246a4.806 4.806 0 0 1-4.816 4.172 5.029 5.029 0 0 1-2.506-.637 4.749 4.749 0 0 1-1.8-1.771 4.969 4.969 0 0 1-.665-2.562 4.969 4.969 0 0 1 .665-2.562 4.735 4.735 0 0 1 1.806-1.771 5.309 5.309 0 0 1 5.264.126 4.345 4.345 0 0 1 1.752 2.163zm7.126 7.056a3.951 3.951 0 0 1-1.974-.5 3.57 3.57 0 0 1-1.386-1.4 4.223 4.223 0 0 1-.5-2.093 4.142 4.142 0 0 1 .518-2.086 3.578 3.578 0 0 1 1.414-1.4 4.335 4.335 0 0 1 4 0 3.578 3.578 0 0 1 1.414 1.4 4.142 4.142 0 0 1 .518 2.086 4.056 4.056 0 0 1-.532 2.086 3.684 3.684 0 0 1-1.449 1.407 4.177 4.177 0 0 1-2.023.494zm0-1.386a2.375 2.375 0 0 0 1.155-.294 2.24 2.24 0 0 0 .875-.882 2.836 2.836 0 0 0 .336-1.428 2.9 2.9 0 0 0-.322-1.421 2.174 2.174 0 0 0-.854-.875 2.335 2.335 0 0 0-1.148-.294 2.3 2.3 0 0 0-1.141.294 2.1 2.1 0 0 0-.833.875 3 3 0 0 0-.308 1.421 2.707 2.707 0 0 0 .637 1.925 2.1 2.1 0 0 0 1.603.673zm8.568-.168 2.184-6.286h1.694L146.818 20h-1.9l-2.926-7.714h1.708zm12.152-2.618a4.989 4.989 0 0 1-.056.784h-5.894a2.141 2.141 0 0 0 .686 1.484 2.165 2.165 0 0 0 1.512.56 1.867 1.867 0 0 0 1.82-1.088h1.722a3.475 3.475 0 0 1-1.267 1.743 3.718 3.718 0 0 1-2.275.679 3.94 3.94 0 0 1-1.981-.5 3.536 3.536 0 0 1-1.372-1.4 4.271 4.271 0 0 1-.5-2.093 4.371 4.371 0 0 1 .483-2.093 3.4 3.4 0 0 1 1.358-1.393 4.042 4.042 0 0 1 2.009-.49 3.929 3.929 0 0 1 1.946.476 3.363 3.363 0 0 1 1.33 1.337 4.027 4.027 0 0 1 .479 1.988zm-1.666-.5a1.816 1.816 0 0 0-.63-1.414 2.252 2.252 0 0 0-1.526-.532 2.05 2.05 0 0 0-1.414.525 2.194 2.194 0 0 0-.7 1.421zm4.83-2.044a2.507 2.507 0 0 1 .931-.917 2.754 2.754 0 0 1 1.379-.329v1.652h-.406a1.944 1.944 0 0 0-1.421.476 2.276 2.276 0 0 0-.483 1.652V20h-1.6v-7.714h1.6zm7.672-1.246a3.459 3.459 0 0 1 1.631.378 2.688 2.688 0 0 1 1.127 1.12 3.684 3.684 0 0 1 .406 1.792V20h-1.582v-4.312a2.239 2.239 0 0 0-.518-1.589 1.844 1.844 0 0 0-1.414-.553 1.866 1.866 0 0 0-1.421.553 2.22 2.22 0 0 0-.525 1.589V20h-1.6v-7.714h1.6v.882a2.642 2.642 0 0 1 1-.742 3.2 3.2 0 0 1 1.296-.266zm4.662 3.948a4.269 4.269 0 0 1 .483-2.058 3.519 3.519 0 0 1 3.157-1.89 3.367 3.367 0 0 1 1.589.357 3.225 3.225 0 0 1 1.085.889v-1.12h1.61V20h-1.61v-1.148a3.17 3.17 0 0 1-1.106.91 3.579 3.579 0 0 1-3.416-.147 3.624 3.624 0 0 1-1.309-1.428 4.393 4.393 0 0 1-.483-2.079zm6.314.028a2.793 2.793 0 0 0-.329-1.386 2.31 2.31 0 0 0-.861-.9 2.253 2.253 0 0 0-1.148-.308 2.293 2.293 0 0 0-1.148.3 2.27 2.27 0 0 0-.861.882 2.754 2.754 0 0 0-.329 1.379 2.874 2.874 0 0 0 .329 1.4 2.321 2.321 0 0 0 .868.917 2.226 2.226 0 0 0 1.141.315 2.253 2.253 0 0 0 1.148-.308 2.3 2.3 0 0 0 .861-.9 2.833 2.833 0 0 0 .329-1.401zm7.6-3.976a3.459 3.459 0 0 1 1.631.378 2.688 2.688 0 0 1 1.127 1.12 3.684 3.684 0 0 1 .406 1.792V20h-1.582v-4.312a2.239 2.239 0 0 0-.518-1.589 1.844 1.844 0 0 0-1.414-.553 1.866 1.866 0 0 0-1.421.553 2.22 2.22 0 0 0-.525 1.589V20h-1.6v-7.714h1.6v.882a2.642 2.642 0 0 1 1-.742 3.2 3.2 0 0 1 1.298-.266zm4.662 3.976a4.371 4.371 0 0 1 .483-2.093 3.436 3.436 0 0 1 1.337-1.393 4.274 4.274 0 0 1 4.277.175 3.274 3.274 0 0 1 1.239 1.9h-1.722a1.821 1.821 0 0 0-.672-.9 1.985 1.985 0 0 0-1.162-.322 1.932 1.932 0 0 0-1.561.693 2.932 2.932 0 0 0-.581 1.939 2.961 2.961 0 0 0 .581 1.946 1.924 1.924 0 0 0 1.561.7 1.771 1.771 0 0 0 1.834-1.218h1.722a3.447 3.447 0 0 1-1.26 1.869 3.718 3.718 0 0 1-2.3.693 3.825 3.825 0 0 1-1.96-.5 3.483 3.483 0 0 1-1.337-1.4 4.371 4.371 0 0 1-.477-2.099zm16-.182a4.989 4.989 0 0 1-.056.784h-5.89a2.141 2.141 0 0 0 .686 1.484 2.165 2.165 0 0 0 1.512.56 1.867 1.867 0 0 0 1.82-1.078h1.722a3.475 3.475 0 0 1-1.267 1.743 3.718 3.718 0 0 1-2.275.679 3.94 3.94 0 0 1-1.981-.5 3.536 3.536 0 0 1-1.372-1.4 4.271 4.271 0 0 1-.5-2.093 4.371 4.371 0 0 1 .483-2.093 3.4 3.4 0 0 1 1.358-1.393 4.042 4.042 0 0 1 2.009-.49 3.929 3.929 0 0 1 1.946.476 3.363 3.363 0 0 1 1.33 1.337 4.027 4.027 0 0 1 .479 1.974zm-1.666-.5a1.816 1.816 0 0 0-.63-1.414 2.252 2.252 0 0 0-1.526-.532 2.05 2.05 0 0 0-1.414.525 2.194 2.194 0 0 0-.7 1.421zm10.08 4.648a4.358 4.358 0 0 1-1.764-.343 2.9 2.9 0 0 1-1.232-.973 2.471 2.471 0 0 1-.448-1.47h1.708a1.542 1.542 0 0 0 .5 1.036 1.762 1.762 0 0 0 1.239.406 1.908 1.908 0 0 0 1.288-.4 1.3 1.3 0 0 0 .462-1.029 1.124 1.124 0 0 0-.287-.8 1.92 1.92 0 0 0-.714-.476 10.767 10.767 0 0 0-1.183-.364 11.084 11.084 0 0 1-1.547-.511 2.556 2.556 0 0 1-1.015-.805 2.326 2.326 0 0 1-.42-1.456 2.588 2.588 0 0 1 .42-1.47 2.683 2.683 0 0 1 1.176-.966 4.273 4.273 0 0 1 1.75-.336 3.647 3.647 0 0 1 2.317.707 2.608 2.608 0 0 1 1 1.939h-1.764a1.278 1.278 0 0 0-.5-.91 1.863 1.863 0 0 0-1.218-.378 1.728 1.728 0 0 0-1.12.35 1.22 1.22 0 0 0-.434 1.008 1.023 1.023 0 0 0 .273.735 1.928 1.928 0 0 0 .693.455 10.759 10.759 0 0 0 1.148.364 11.984 11.984 0 0 1 1.575.532 2.622 2.622 0 0 1 1.036.819 2.354 2.354 0 0 1 .427 1.477 2.656 2.656 0 0 1-.4 1.4 2.878 2.878 0 0 1-1.162 1.057 3.832 3.832 0 0 1-1.8.39zm8.6.028a3.951 3.951 0 0 1-1.974-.5 3.57 3.57 0 0 1-1.386-1.4 4.223 4.223 0 0 1-.5-2.093 4.142 4.142 0 0 1 .518-2.086 3.578 3.578 0 0 1 1.414-1.4 4.335 4.335 0 0 1 4 0 3.578 3.578 0 0 1 1.414 1.4 4.142 4.142 0 0 1 .518 2.086 4.056 4.056 0 0 1-.532 2.086 3.684 3.684 0 0 1-1.449 1.407 4.177 4.177 0 0 1-2.023.486zm0-1.386a2.375 2.375 0 0 0 1.155-.294 2.24 2.24 0 0 0 .875-.882 2.836 2.836 0 0 0 .336-1.428 2.9 2.9 0 0 0-.322-1.421 2.174 2.174 0 0 0-.854-.875 2.335 2.335 0 0 0-1.148-.294 2.3 2.3 0 0 0-1.141.294 2.1 2.1 0 0 0-.833.875 3 3 0 0 0-.308 1.421 2.707 2.707 0 0 0 .637 1.925 2.1 2.1 0 0 0 1.603.665zm5.054-2.6a4.371 4.371 0 0 1 .483-2.093 3.436 3.436 0 0 1 1.337-1.393 4.274 4.274 0 0 1 4.277.175 3.274 3.274 0 0 1 1.239 1.9h-1.722a1.821 1.821 0 0 0-.672-.9 1.985 1.985 0 0 0-1.162-.322 1.932 1.932 0 0 0-1.561.693 2.932 2.932 0 0 0-.581 1.939 2.961 2.961 0 0 0 .581 1.946 1.924 1.924 0 0 0 1.561.7 1.771 1.771 0 0 0 1.834-1.218h1.722a3.447 3.447 0 0 1-1.26 1.869 3.718 3.718 0 0 1-2.3.693 3.825 3.825 0 0 1-1.96-.5 3.483 3.483 0 0 1-1.337-1.4 4.371 4.371 0 0 1-.479-2.107zm9.744-4.872a1.022 1.022 0 1 1 0-2.044.972.972 0 0 1 .714.294 1.048 1.048 0 0 1 0 1.456.972.972 0 0 1-.714.276zm.784 1.022V20h-1.6v-7.714zm9.17 3.668a4.989 4.989 0 0 1-.056.784h-5.894a2.141 2.141 0 0 0 .686 1.484 2.165 2.165 0 0 0 1.512.56 1.867 1.867 0 0 0 1.82-1.078h1.722a3.475 3.475 0 0 1-1.267 1.743 3.718 3.718 0 0 1-2.275.679 3.94 3.94 0 0 1-1.981-.5 3.536 3.536 0 0 1-1.372-1.4 4.271 4.271 0 0 1-.5-2.093 4.371 4.371 0 0 1 .483-2.093 3.4 3.4 0 0 1 1.358-1.393 4.042 4.042 0 0 1 2.009-.49 3.929 3.929 0 0 1 1.946.476 3.363 3.363 0 0 1 1.33 1.337 4.027 4.027 0 0 1 .479 1.966zm-1.666-.5a1.816 1.816 0 0 0-.63-1.414 2.252 2.252 0 0 0-1.526-.532 2.05 2.05 0 0 0-1.414.525 2.194 2.194 0 0 0-.7 1.421zm5.1-1.862v4.27a.82.82 0 0 0 .2.623 1.009 1.009 0 0 0 .693.189h.98V20h-1.26a2.429 2.429 0 0 1-1.652-.5 2.077 2.077 0 0 1-.574-1.638v-4.27h-.91v-1.3h.91v-1.924h1.61v1.918h1.876v1.3zm10.29-1.3-4.732 11.34h-1.652l1.568-3.752-3.038-7.588h1.778l2.17 5.88 2.254-5.88zM6.846 37.83H2.59L1.806 40H.462l3.528-9.7h1.47L8.974 40H7.63zm-.364-1.036-1.764-4.928-1.764 4.928zm15.162-3.724a3.034 3.034 0 0 0-1.176-1.323 3.376 3.376 0 0 0-1.792-.469 3.638 3.638 0 0 0-1.841.469 3.313 3.313 0 0 0-1.288 1.344 4.582 4.582 0 0 0 0 4.039 3.324 3.324 0 0 0 1.288 1.337 3.638 3.638 0 0 0 1.841.469 3.33 3.33 0 0 0 2.352-.854 3.525 3.525 0 0 0 1.078-2.31h-3.892v-1.036h5.25v.98a4.845 4.845 0 0 1-.756 2.205 4.672 4.672 0 0 1-1.694 1.579 4.747 4.747 0 0 1-2.338.581 4.924 4.924 0 0 1-2.478-.637 4.677 4.677 0 0 1-1.771-1.771 5.381 5.381 0 0 1 0-5.131 4.663 4.663 0 0 1 1.773-1.775 5.222 5.222 0 0 1 5.229.133 4.406 4.406 0 0 1 1.743 2.17zm6.846 7.056a3.928 3.928 0 0 1-1.953-.49 3.488 3.488 0 0 1-1.372-1.393 4.271 4.271 0 0 1-.5-2.093 4.148 4.148 0 0 1 .511-2.079 3.521 3.521 0 0 1 1.393-1.386 4.275 4.275 0 0 1 3.948 0 3.534 3.534 0 0 1 1.393 1.379 4.138 4.138 0 0 1 .511 2.086 4.088 4.088 0 0 1-.525 2.093 3.639 3.639 0 0 1-1.421 1.393 4.075 4.075 0 0 1-1.985.49zm0-1.12a2.69 2.69 0 0 0 1.288-.322 2.45 2.45 0 0 0 .973-.966 3.094 3.094 0 0 0 .371-1.568 3.142 3.142 0 0 0-.364-1.568 2.384 2.384 0 0 0-.952-.959 2.748 2.748 0 0 0-2.555 0 2.309 2.309 0 0 0-.931.959 3.244 3.244 0 0 0-.35 1.568 3.332 3.332 0 0 0 .343 1.582 2.28 2.28 0 0 0 .917.959 2.576 2.576 0 0 0 1.26.315zm8.47-.182 2.38-6.5h1.36L37.688 40H36.2l-3.01-7.672h1.372zm12-2.954a7.5 7.5 0 0 1-.042.77h-6.134a2.411 2.411 0 0 0 2.492 2.408 2.356 2.356 0 0 0 1.379-.385 2.038 2.038 0 0 0 .777-1.029H48.8a3.3 3.3 0 0 1-1.232 1.8 3.718 3.718 0 0 1-2.3.693 3.878 3.878 0 0 1-1.953-.49 3.468 3.468 0 0 1-1.351-1.393 4.32 4.32 0 0 1-.49-2.093 4.382 4.382 0 0 1 .476-2.086 3.341 3.341 0 0 1 1.35-1.38 3.98 3.98 0 0 1 1.981-.483 3.85 3.85 0 0 1 1.932.476 3.3 3.3 0 0 1 1.3 1.309 3.863 3.863 0 0 1 .445 1.883zm-1.318-.27a2.35 2.35 0 0 0-.322-1.253 2.094 2.094 0 0 0-.875-.8 2.729 2.729 0 0 0-1.225-.273 2.361 2.361 0 0 0-1.645.616 2.51 2.51 0 0 0-.775 1.71zm4.27-2.03a2.444 2.444 0 0 1 .959-1.022 2.964 2.964 0 0 1 1.519-.364V33.5h-.336q-2.142 0-2.142 2.324V40h-1.274v-7.672h1.274zm7.688-1.382a3.109 3.109 0 0 1 2.268.847 3.26 3.26 0 0 1 .868 2.443V40h-1.26v-4.34a2.467 2.467 0 0 0-.576-1.76 2.051 2.051 0 0 0-1.568-.609 2.1 2.1 0 0 0-1.6.63 2.574 2.574 0 0 0-.595 1.834V40H55.86v-7.672h1.274v1.092a2.529 2.529 0 0 1 1.029-.91 3.192 3.192 0 0 1 1.437-.322zm14.448 0a3.356 3.356 0 0 1 1.6.371 2.677 2.677 0 0 1 1.106 1.113 3.716 3.716 0 0 1 .406 1.806V40H75.9v-4.34a2.486 2.486 0 0 0-.567-1.757 1.993 1.993 0 0 0-1.533-.609 2.048 2.048 0 0 0-1.582.637 2.62 2.62 0 0 0-.588 1.841V40h-1.26v-4.34a2.486 2.486 0 0 0-.57-1.76 1.993 1.993 0 0 0-1.533-.609 2.048 2.048 0 0 0-1.582.637 2.62 2.62 0 0 0-.588 1.841V40H64.82v-7.672h1.274v1.106a2.517 2.517 0 0 1 1.015-.924 3.074 3.074 0 0 1 1.407-.322 3.32 3.32 0 0 1 1.708.434A2.648 2.648 0 0 1 71.33 33.9a2.516 2.516 0 0 1 1.064-1.26 3.134 3.134 0 0 1 1.652-.452zM86.24 35.87a7.5 7.5 0 0 1-.042.77h-6.132a2.411 2.411 0 0 0 2.492 2.408 2.356 2.356 0 0 0 1.379-.385 2.038 2.038 0 0 0 .777-1.029h1.372a3.3 3.3 0 0 1-1.232 1.8 3.718 3.718 0 0 1-2.3.693 3.878 3.878 0 0 1-1.953-.49 3.468 3.468 0 0 1-1.351-1.393 4.32 4.32 0 0 1-.49-2.093 4.382 4.382 0 0 1 .476-2.086 3.341 3.341 0 0 1 1.337-1.379 3.98 3.98 0 0 1 1.981-.483 3.85 3.85 0 0 1 1.932.476 3.3 3.3 0 0 1 1.295 1.309 3.863 3.863 0 0 1 .459 1.882zm-1.316-.27a2.35 2.35 0 0 0-.322-1.253 2.094 2.094 0 0 0-.875-.8 2.729 2.729 0 0 0-1.227-.267 2.361 2.361 0 0 0-1.645.616 2.51 2.51 0 0 0-.775 1.704zm6.734-3.416a3.109 3.109 0 0 1 2.268.847 3.26 3.26 0 0 1 .868 2.443V40h-1.26v-4.34a2.467 2.467 0 0 0-.574-1.76 2.051 2.051 0 0 0-1.568-.609 2.1 2.1 0 0 0-1.6.63 2.574 2.574 0 0 0-.6 1.834V40H87.92v-7.672h1.274v1.092a2.529 2.529 0 0 1 1.029-.91 3.192 3.192 0 0 1 1.435-.322zm6.776 1.19V37.9a1.076 1.076 0 0 0 .238.791 1.173 1.173 0 0 0 .826.231h.938V40h-1.148a2.285 2.285 0 0 1-1.6-.49 2.1 2.1 0 0 1-.532-1.61v-4.522h-.994v-1.05h.994V30.4h1.274v1.932h2v1.05zm10.626 6.748a3.928 3.928 0 0 1-1.953-.49 3.488 3.488 0 0 1-1.372-1.393 4.271 4.271 0 0 1-.5-2.093 4.148 4.148 0 0 1 .511-2.079 3.521 3.521 0 0 1 1.393-1.386 4.275 4.275 0 0 1 3.948 0 3.534 3.534 0 0 1 1.393 1.379 4.138 4.138 0 0 1 .511 2.086 4.088 4.088 0 0 1-.525 2.093 3.639 3.639 0 0 1-1.421 1.393 4.075 4.075 0 0 1-1.985.494zm0-1.12a2.69 2.69 0 0 0 1.288-.322 2.45 2.45 0 0 0 .973-.966 3.094 3.094 0 0 0 .371-1.568 3.142 3.142 0 0 0-.364-1.568 2.384 2.384 0 0 0-.952-.959 2.748 2.748 0 0 0-2.555 0 2.31 2.31 0 0 0-.931.959 3.244 3.244 0 0 0-.35 1.568 3.332 3.332 0 0 0 .343 1.582 2.28 2.28 0 0 0 .917.959 2.576 2.576 0 0 0 1.26.319zm8.736-5.628h-1.61V40h-1.274v-6.622h-.994v-1.05h.994v-.546a2.407 2.407 0 0 1 .665-1.883 3.154 3.154 0 0 1 2.135-.595v1.064a1.691 1.691 0 0 0-1.183.329 1.454 1.454 0 0 0-.343 1.085v.546h1.61zm15.12-3.066V40h-1.274v-7.224L128.422 40h-.9l-3.234-7.238V40h-1.274v-9.688h1.372l3.584 8.008 3.584-8.008zm2.814.77a.868.868 0 1 1 0-1.736.8.8 0 0 1 .6.252.9.9 0 0 1 0 1.232.8.8 0 0 1-.6.256zm.616 1.246V40h-1.274v-7.672zm3.122 6.622h3.766V40h-5.222v-1.05l3.724-5.586h-3.7v-1.036h5.166v1.036zm8.764 1.176a3.928 3.928 0 0 1-1.953-.49 3.488 3.488 0 0 1-1.372-1.393 4.271 4.271 0 0 1-.5-2.093 4.148 4.148 0 0 1 .511-2.079 3.521 3.521 0 0 1 1.393-1.386 4.275 4.275 0 0 1 3.948 0 3.534 3.534 0 0 1 1.393 1.379 4.138 4.138 0 0 1 .511 2.086 4.088 4.088 0 0 1-.525 2.093 3.639 3.639 0 0 1-1.421 1.393 4.075 4.075 0 0 1-1.985.494zm0-1.12a2.69 2.69 0 0 0 1.288-.322 2.45 2.45 0 0 0 .973-.966 3.094 3.094 0 0 0 .371-1.568 3.142 3.142 0 0 0-.364-1.568 2.384 2.384 0 0 0-.952-.959 2.748 2.748 0 0 0-2.555 0 2.31 2.31 0 0 0-.931.959 3.244 3.244 0 0 0-.35 1.568 3.332 3.332 0 0 0 .343 1.582 2.28 2.28 0 0 0 .917.959 2.576 2.576 0 0 0 1.26.319zm6.888-5.432a2.444 2.444 0 0 1 .959-1.022 2.964 2.964 0 0 1 1.519-.364V33.5h-.336q-2.142 0-2.142 2.324V40h-1.274v-7.672h1.274zm3.472 2.562a4.309 4.309 0 0 1 .476-2.065 3.454 3.454 0 0 1 1.309-1.379 3.59 3.59 0 0 1 1.855-.49 3.4 3.4 0 0 1 1.75.434 2.892 2.892 0 0 1 1.106 1.092v-1.4h1.288V40h-1.288v-1.428a3 3 0 0 1-1.127 1.113 3.371 3.371 0 0 1-1.743.441 3.478 3.478 0 0 1-1.848-.5 3.535 3.535 0 0 1-1.3-1.414 4.4 4.4 0 0 1-.478-2.076zm6.5.014a3.119 3.119 0 0 0-.35-1.512 2.472 2.472 0 0 0-.945-.987 2.68 2.68 0 0 0-2.611-.007 2.438 2.438 0 0 0-.938.98 3.119 3.119 0 0 0-.35 1.512 3.191 3.191 0 0 0 .35 1.533 2.476 2.476 0 0 0 .938.994 2.537 2.537 0 0 0 1.3.343 2.574 2.574 0 0 0 1.309-.343 2.461 2.461 0 0 0 .945-.994 3.16 3.16 0 0 0 .348-1.515zm12.67-3.962a3.356 3.356 0 0 1 1.6.371 2.677 2.677 0 0 1 1.106 1.113 3.716 3.716 0 0 1 .406 1.806V40h-1.26v-4.34a2.486 2.486 0 0 0-.567-1.757 1.993 1.993 0 0 0-1.533-.609 2.048 2.048 0 0 0-1.582.637 2.62 2.62 0 0 0-.588 1.841V40h-1.26v-4.34a2.486 2.486 0 0 0-.567-1.757 1.993 1.993 0 0 0-1.533-.609 2.048 2.048 0 0 0-1.582.637 2.62 2.62 0 0 0-.588 1.841V40h-1.274v-7.672h1.274v1.106a2.517 2.517 0 0 1 1.015-.924 3.074 3.074 0 0 1 1.407-.322 3.32 3.32 0 0 1 1.708.434 2.648 2.648 0 0 1 1.106 1.274 2.516 2.516 0 0 1 1.064-1.26 3.134 3.134 0 0 1 1.644-.448zm10.178-1.946v6.174a2.612 2.612 0 0 0 .637 1.932 2.785 2.785 0 0 0 3.528 0 2.612 2.612 0 0 0 .637-1.932v-6.17h1.274V36.4a3.984 3.984 0 0 1-.49 2.051 3.076 3.076 0 0 1-1.323 1.239 4.5 4.5 0 0 1-3.738 0 3.034 3.034 0 0 1-1.316-1.239 4.03 4.03 0 0 1-.483-2.051v-6.16zm11.942 1.946a3.109 3.109 0 0 1 2.268.847 3.26 3.26 0 0 1 .868 2.443V40h-1.26v-4.34a2.467 2.467 0 0 0-.574-1.757 2.051 2.051 0 0 0-1.568-.609 2.1 2.1 0 0 0-1.6.63 2.574 2.574 0 0 0-.6 1.834V40h-1.276v-7.672h1.274v1.092a2.529 2.529 0 0 1 1.029-.91 3.192 3.192 0 0 1 1.435-.322zm4.746 3.948a4.309 4.309 0 0 1 .476-2.065 3.454 3.454 0 0 1 1.309-1.379 3.617 3.617 0 0 1 1.869-.49 3.47 3.47 0 0 1 1.666.413 2.98 2.98 0 0 1 1.172 1.089v-4.06h1.288V40h-1.288v-1.442a2.981 2.981 0 0 1-1.12 1.127 3.334 3.334 0 0 1-1.736.441 3.49 3.49 0 0 1-3.164-1.918 4.4 4.4 0 0 1-.476-2.072zm6.5.014a3.119 3.119 0 0 0-.35-1.512 2.472 2.472 0 0 0-.945-.987 2.68 2.68 0 0 0-2.611-.007 2.438 2.438 0 0 0-.938.98 3.119 3.119 0 0 0-.35 1.512 3.191 3.191 0 0 0 .35 1.533 2.476 2.476 0 0 0 .938.994 2.537 2.537 0 0 0 1.3.343 2.574 2.574 0 0 0 1.309-.343 2.461 2.461 0 0 0 .945-.994 3.16 3.16 0 0 0 .344-1.515zm10.444-.28a7.5 7.5 0 0 1-.042.77h-6.14a2.411 2.411 0 0 0 2.492 2.408 2.356 2.356 0 0 0 1.379-.385 2.038 2.038 0 0 0 .777-1.029h1.372a3.3 3.3 0 0 1-1.232 1.8 3.718 3.718 0 0 1-2.3.693 3.878 3.878 0 0 1-1.953-.49 3.469 3.469 0 0 1-1.351-1.393 4.32 4.32 0 0 1-.49-2.093 4.382 4.382 0 0 1 .476-2.086 3.342 3.342 0 0 1 1.337-1.379 3.98 3.98 0 0 1 1.981-.483 3.85 3.85 0 0 1 1.932.476 3.3 3.3 0 0 1 1.295 1.309 3.863 3.863 0 0 1 .459 1.886zm-1.316-.266a2.35 2.35 0 0 0-.322-1.253 2.094 2.094 0 0 0-.875-.8 2.729 2.729 0 0 0-1.225-.273 2.361 2.361 0 0 0-1.645.616 2.51 2.51 0 0 0-.789 1.71zm4.27-2.03a2.444 2.444 0 0 1 .959-1.022 2.964 2.964 0 0 1 1.515-.36V33.5h-.336q-2.142 0-2.142 2.324V40h-1.274v-7.672h1.274zm5.5-.2v4.53a1.076 1.076 0 0 0 .238.791 1.173 1.173 0 0 0 .826.231h.938V40h-1.148a2.285 2.285 0 0 1-1.6-.49 2.1 2.1 0 0 1-.532-1.61v-4.522h-.994v-1.05h.994V30.4h1.274v1.932h2v1.05zm3.066 2.758a4.309 4.309 0 0 1 .476-2.065 3.454 3.454 0 0 1 1.309-1.379 3.59 3.59 0 0 1 1.855-.49 3.4 3.4 0 0 1 1.75.434 2.892 2.892 0 0 1 1.106 1.092v-1.4h1.288V40h-1.288v-1.428a3 3 0 0 1-1.127 1.113 3.371 3.371 0 0 1-1.743.441 3.478 3.478 0 0 1-1.848-.5 3.535 3.535 0 0 1-1.3-1.414 4.4 4.4 0 0 1-.484-2.076zm6.5.014a3.119 3.119 0 0 0-.35-1.512 2.472 2.472 0 0 0-.945-.987 2.68 2.68 0 0 0-2.611-.007 2.438 2.438 0 0 0-.938.98 3.119 3.119 0 0 0-.35 1.512 3.191 3.191 0 0 0 .35 1.533 2.476 2.476 0 0 0 .938.994 2.537 2.537 0 0 0 1.3.343 2.574 2.574 0 0 0 1.309-.343 2.461 2.461 0 0 0 .945-.994 3.16 3.16 0 0 0 .342-1.511zM247.31 40l-3.01-3.388V40h-1.274V29.64h1.274v6.09l2.954-3.4h1.778l-3.612 3.82 3.626 3.85zm3.584-8.918a.868.868 0 1 1 0-1.736.8.8 0 0 1 .6.252.9.9 0 0 1 0 1.232.8.8 0 0 1-.6.252zm.616 1.246V40h-1.274v-7.672zm5.908-.14a3.109 3.109 0 0 1 2.268.847 3.26 3.26 0 0 1 .868 2.443V40h-1.26v-4.34a2.467 2.467 0 0 0-.574-1.757 2.051 2.051 0 0 0-1.568-.609 2.1 2.1 0 0 0-1.6.63 2.574 2.574 0 0 0-.6 1.834V40h-1.272v-7.672h1.274v1.092a2.529 2.529 0 0 1 1.029-.91 3.192 3.192 0 0 1 1.435-.322zm8.386.014a3.414 3.414 0 0 1 1.743.434 2.88 2.88 0 0 1 1.113 1.092v-1.4h1.288v7.84a3.831 3.831 0 0 1-.448 1.869 3.193 3.193 0 0 1-1.281 1.281 3.933 3.933 0 0 1-1.939.462 4.252 4.252 0 0 1-2.52-.714 2.79 2.79 0 0 1-1.19-1.946h1.26a2 2 0 0 0 .868 1.127 2.843 2.843 0 0 0 1.582.427 2.334 2.334 0 0 0 1.72-.658 2.483 2.483 0 0 0 .665-1.848v-1.61a3.066 3.066 0 0 1-1.12 1.12 3.293 3.293 0 0 1-1.736.448 3.49 3.49 0 0 1-3.164-1.918 4.4 4.4 0 0 1-.476-2.072 4.309 4.309 0 0 1 .476-2.065 3.454 3.454 0 0 1 1.309-1.379 3.59 3.59 0 0 1 1.846-.492zm2.856 3.948a3.119 3.119 0 0 0-.35-1.512 2.471 2.471 0 0 0-.945-.987 2.68 2.68 0 0 0-2.611-.007 2.438 2.438 0 0 0-.938.98 3.119 3.119 0 0 0-.35 1.512 3.191 3.191 0 0 0 .35 1.533 2.476 2.476 0 0 0 .938.994 2.537 2.537 0 0 0 1.3.343 2.574 2.574 0 0 0 1.309-.343 2.461 2.461 0 0 0 .945-.994 3.16 3.16 0 0 0 .352-1.519z" transform="translate(75.694 11)" style="fill:#eaeaea"/>
        <g data-name="msegslogo 2">
            <g data-name="Group 7040">
                <path data-name="Path 1489" d="M139.132 43.128h-5.31a14.958 14.958 0 0 0-21.589-1.689c-.029.029-.058.049-.087.078a1.165 1.165 0 0 0-.116.107 15.088 15.088 0 0 0-3.533 4.922 15.421 15.421 0 0 0-1.029 3.31 14.613 14.613 0 0 0-.243 2.7.661.661 0 0 1 .019.146l.019.573a13.678 13.678 0 0 0 .272 2.3h.01l.029.01a14.352 14.352 0 0 0 1.107 3.339l-.029-.01a14.974 14.974 0 0 0 7 7.144 14.745 14.745 0 0 0 5.6 1.485l1.63 4.457-.582.019a20.87 20.87 0 0 1-1.786-.078 19.41 19.41 0 0 1-17.648-18.308.592.592 0 0 1-.039-.165l-.029-.777a19.347 19.347 0 0 1 3.65-11.406c.194-.243.388-.5.582-.767a19.433 19.433 0 0 1 14.26-7.28c.029-.01.058-.01.087-.019.116 0 .233-.01.349-.019h.437a19.319 19.319 0 0 1 16.969 9.928z" transform="translate(-95.711 -33.197)" style="fill:#f23d46"/>
                <path data-name="Path 1490" d="M336.4 372.19v-3.427a.563.563 0 0 1 .563-.563h10.61a.563.563 0 0 1 .563.563v3.427a.563.563 0 0 1-.563.563h-10.6a.559.559 0 0 1-.573-.563z" transform="translate(-306.637 -335.681)" style="fill:#f23d46"/>
                <path data-name="Path 1491" d="M287.873 164h-21.647a2.131 2.131 0 0 0-2.126 2.126v14.444a.742.742 0 0 0 .747.747h24.52a.553.553 0 0 0 .553-.553v-14.725a2.059 2.059 0 0 0-2.047-2.039zm-2.514 12.221a.545.545 0 0 1-.553.544h-15.629a.537.537 0 0 1-.544-.544v-7.115a.545.545 0 0 1 .544-.553H284.8a.553.553 0 0 1 .553.553l.01 7.115z" transform="translate(-241.355 -151.303)" style="fill:#f23d46"/>
            </g>
            <g data-name="Group 7041">
                <path data-name="Path 1492" d="M29.8 453.1h3.281l3.2 7.9 3.174-7.9h3.275v11.416h-2.786v-6.843l-2.553 6.843h-2.242l-2.572-6.863v6.863H29.8z" transform="translate(-29.799 -412.642)" style="fill:#fdffff"/>
                <path data-name="Path 1493" d="M184.555 463.087c-2.446 0-4.378-1.223-4.456-3.524h2.961a1.313 1.313 0 0 0 1.417 1.3c.815 0 1.33-.408 1.33-1.078 0-2.116-5.708-.971-5.669-5.019 0-2.165 1.776-3.368 4.164-3.368 2.485 0 4.164 1.243 4.271 3.417h-3.009a1.232 1.232 0 0 0-1.31-1.184 1.009 1.009 0 0 0-1.175 1.039c0 1.98 5.64 1.087 5.64 4.912.001 1.918-1.494 3.505-4.164 3.505z" transform="translate(-165.617 -411.107)" style="fill:#fdffff"/>
                <path data-name="Path 1494" d="M285.392 485.319a4.66 4.66 0 0 1 0-9.319 4.28 4.28 0 0 1 4.523 4.524 7.973 7.973 0 0 1-.049.815h-6.29a1.683 1.683 0 0 0 1.718 1.738 1.47 1.47 0 0 0 1.446-.883h2.96a4.261 4.261 0 0 1-4.308 3.125zm-1.806-5.543h3.475a1.569 1.569 0 0 0-1.708-1.563 1.715 1.715 0 0 0-1.767 1.563z" transform="translate(-256.617 -433.319)" style="fill:#fdffff"/>
                <path data-name="Path 1495" d="M396.1 455.437h-3.068a2.393 2.393 0 0 0-2.242-1.175 2.938 2.938 0 0 0-2.98 3.252 3.006 3.006 0 0 0 3.2 3.349 2.739 2.739 0 0 0 2.767-2.019h-3.524V456.8h6.048v2.592a5.81 5.81 0 1 1-5.5-7.688c2.712-.004 4.699 1.396 5.299 3.733z" transform="translate(-350.79 -411.378)" style="fill:#fdffff"/>
                <path data-name="Path 1496" d="M518.356 463.087c-2.446 0-4.378-1.223-4.456-3.524h2.961a1.313 1.313 0 0 0 1.417 1.3c.815 0 1.33-.408 1.33-1.078 0-2.116-5.708-.971-5.669-5.019 0-2.165 1.776-3.368 4.164-3.368 2.485 0 4.164 1.243 4.271 3.417h-3.009a1.232 1.232 0 0 0-1.31-1.184 1.009 1.009 0 0 0-1.175 1.039c0 1.98 5.64 1.087 5.64 4.912 0 1.918-1.504 3.505-4.164 3.505z" transform="translate(-467.256 -411.107)" style="fill:#fdffff"/>
            </g>
            <g data-name="Group 7042">
                <path data-name="Path 1497" d="M607.7 451.4h1.534v.34h-.554v1.76h-.417v-1.76h-.553v-.34z" transform="translate(-551.95 -411.049)" style="fill:#fdffff"/>
                <path data-name="Path 1498" d="M626.7 451.4h.476l.67 1.553.67-1.553h.476v2.1h-.417v-1.359l-.563 1.359h-.32l-.563-1.359v1.359h-.417v-2.1z" transform="translate(-569.106 -411.049)" style="fill:#fdffff"/>
            </g>
        </g>
    </g>
</svg>
